# xmcd
#
# Track frame offsets: 
#        150
#        17132
#        30025
#        48132
#        67625
#        78302
#        93267
#        109850
#        124362
#        139355
#        151352
#        172775
#        187565
#        205177
#        223060
#        240682
#        259507
#        276342
#        289490
#        309285
#
# Disc length: 4345 seconds
#
# Revision: 6
# Processed by: cddbd v1.5.2PL0 Copyright (c) Steve Scherf et al.
# Submitted via: ExactAudioCopyFreeDBPlugin 1.0
#
DISCID=0810f714
DTITLE=Kenny Rogers - Through The Years: A Retrospective [CD3 - 197
DTITLE=6-1983)
DYEAR=1998
DGENRE=Country
TTITLE0=Love Lifted Me
TTITLE1=Laura (What's He Got That I Ain't Got)
TTITLE2=While The Feeling's Good
TTITLE3=Sweet Music Man
TTITLE4=Dottie West -  Kenny Rogers - Anyone Who Isn't Me Tonight
TTITLE5=Dottie West -  Kenny Rogers - `Til I Can Make It On My Own
TTITLE6=Kenny Rogers -  Kim Carnes - Don't Fall In Love With A Dreamer
TTITLE7=Love The World Away
TTITLE8=Share Your Love With Me
TTITLE9=Blaze Of Glory
TTITLE10=Through The Years
TTITLE11=Love Song
TTITLE12=All My Life
TTITLE13=Scarlet Fever
TTITLE14=You Were A Good Friend
TTITLE15=Buried Treasure
TTITLE16=Dolly Parton -  Kenny Rogers - The Greatest Gift Of All
TTITLE17=Dottie West -  Kenny Rogers - Together Again
TTITLE18=James Ingram -  Kenny Rogers -  Kim Carnes - What About Me
TTITLE19=Eyes That See In The Dark
EXTD=YEAR: 1998
EXTT0=
EXTT1=
EXTT2=
EXTT3=
EXTT4=
EXTT5=
EXTT6=
EXTT7=
EXTT8=
EXTT9=
EXTT10=
EXTT11=
EXTT12=
EXTT13=
EXTT14=
EXTT15=
EXTT16=
EXTT17=
EXTT18=
EXTT19=
PLAYORDER=
